<svg id="eZ1dLaTGr4f1" xmlns="http://www.w3.org/2000/svg" xmlns:xlink="http://www.w3.org/1999/xlink" viewBox="0 0 51 71" shape-rendering="geometricPrecision" text-rendering="geometricPrecision"><defs><radialGradient id="eZ1dLaTGr4f83-fill" cx="0" cy="0" r="1" spreadMethod="pad" gradientUnits="userSpaceOnUse" gradientTransform="matrix(17.4233 0 0 17.4233 31.0809 65.8042)"><stop id="eZ1dLaTGr4f83-fill-0" offset="0%" stop-color="#09f"/><stop id="eZ1dLaTGr4f83-fill-1" offset="60.98%" stop-color="#a033ff"/><stop id="eZ1dLaTGr4f83-fill-2" offset="93.48%" stop-color="#ff5280"/><stop id="eZ1dLaTGr4f83-fill-3" offset="100%" stop-color="#ff7061"/></radialGradient></defs><g id="eZ1dLaTGr4f2" transform="matrix(.796956 0.069725-.069725 0.796956 7.690318 5.409853)"><path d="M14.0248,25.4384C9.84583,30.2284,7.06848,37.882,6.70508,44.234c-.36339,6.1176,1.27188,12.3134,4.56832,17.4418c5.2952,1.3277,10.798,1.7442,16.2229,1.2236-3.8156-4.0091-7.19-10.361-8.2542-15.8279-1.22-6.404-1.1161-10.8816-2.3361-15.5935-.6489-2.5512-2.8812-6.0396-2.8812-6.0396Z" fill="#1f1f21"/><path d="M11.6888,31.8164C7.58762,39.5481,5.45918,48.3211,5.48514,57.068c-1.66122-.3384-3.29649-.807-4.905794-1.4317C1.69548,43.8174,5.64088,33.847,14.0248,25.4384l-2.336,6.378Z" fill="#1f1f21"/><path d="M26.5359,61.832c-5.7624-.3384-11.4469-1.3797-16.5084-4.2693C8.49607,52.6165,7.25015,47.462,7.76929,42.3076c-1.06422,1.5098-1.3757,3.3321-1.42762,5.2065.10383-.5727.20766-1.1455.33744-1.7182-.02596,5.597,1.60931,11.1941,4.62029,15.906c5.2951,1.3276,10.7979,1.7442,16.2228,1.2235-.3374-.3645-.6748-.7289-.9863-1.0934Z" fill="#141415"/><path d="M14.7257,26.5839c-.3894-.7029-.7009-1.1455-.7009-1.1455C5.64086,33.847,1.69546,43.8174,0.605286,55.6623c.752744.2863,1.505484.5467,2.258224.7549.57104-10.9337,2.77735-23.3773,11.86219-29.8333Z" fill="#231f20"/><path d="M16.8022,42.698c.5451,4.8421,2.5178,9.3978,5.6585,13.0424-1.5054-2.8376-2.6475-5.8573-3.1926-8.6428-1.22-6.4041-1.1161-10.8817-2.3361-15.5936-.2077-.781-.5451-1.6661-.9344-2.4991c1.2718,4.3735.3374,9.1635.8046,13.6931Z" fill="#141415"/><path d="M17.8924,58.8383c-.026,0-.0519-.0261-.0779-.0521-3.0369-4.1652-3.4782-9.6321-3.556-13.3547-.026-1.3277-.026-2.7074,0-4.0091.0259-3.2801.0778-6.6643-.5451-9.9184c0-.0521.0259-.1041.0778-.1302.052,0,.1039.0261.1298.0781.623,3.2802.5711,6.6904.5451,9.9705-.0259,1.3277-.0259,2.6814,0,4.0091.1558,7.7577,2.0765,11.2721,3.5301,13.2506.026.052.026.1041-.0259.1562-.026,0-.052,0-.0779,0Z" fill="#141415"/><path d="M12.0522,56.5214c-.052,0-.0779-.0261-.1039-.0781-2.62157-8.4606-1.8948-15.6456.1298-24.4967c0-.0521.0779-.0781.1298-.0781s.0779.0781.0779.1301c-1.9987,8.8251-2.72546,15.9841-.1298,24.3926.0259.0521-.026.1041-.0779.1302h-.0259Z" fill="#141415"/><path d="M8.00292,51.393c0,0-3.58201,4.7379-4.93175,7.3412-1.14209,2.2128-2.439917,4.9201-.57104,6.3259c1.86887,1.3797,3.50413-.026,4.56835-1.2235s5.39892-8.0962,5.39892-8.0962-1.2199-6.0395-4.46448-4.3474Z" fill="#fac3b2"/><path d="M28.0414,33.4565h-8.4619v9.9184h8.4619v-9.9184Z" fill="#fac3b2"/><path d="M19.5795,33.4565v4.9722c2.6995,1.0934,5.7364,1.1715,8.4619.0781v-5.0503h-8.4619Z" fill="#c26e61"/><path d="M29.9102,41.865c0,2.0566,2.6736,12.4176-6.1517,12.4176s-6.0738-10.361-6.0738-12.4176s12.2255-2.0566,12.2255,0Z" fill="#fac3b2"/><path d="M43.0443,55.8966c.5191-.3905-5.4768-10.9337-6.0479-11.975-.571-1.0673-6.6189-2.4471-6.6189-2.4471l-6.5411,1.4318-6.4891-1.4318c0,0-6.0479,1.3798-6.6189,2.4471-.5711,1.0674-7.31978,10.7775-6.80065,11.168s7.83885,3.9309,7.99465,3.7747c.1298-.1301.8306-.7028.9863-1.1454-.3893,1.2235.5451,9.4629.9864,12.4306h10.1049h9.7259c.3893-3.1239.9085-11.1029.7527-12.3785.0519.4165.4672,1.0152.5192,1.1454.1038.2343,7.5274-2.6293,8.0465-3.0198Z" fill="#e91d2c"/><path d="M3.92778,55.0636c.49317.4425,7.81292,3.9049,7.99462,3.7747.1557-.0781.8566-.7029,1.0123-1.1975c0,0-6.02192-3.176-8.25418-4.1652c0,0-.9604,1.4057-.75274,1.588Z" fill="#b7202c"/><path d="M43.0962,55.9487c-.5191.4425-8.2802,3.2801-8.41,3.0718-.1038-.1562-.1557-.7029-.2336-1.2235c0,0,5.8143-2.343,8.1504-3.3322c0-.026.7268,1.3016.4932,1.4839Z" fill="#b7202c"/><path d="M16.4388,41.3704l2.5437-2.1347l4.8279,3.6706-4.4904,3.983c0,0-.5451.5727-.9345-.5467-.4672-1.3537-1.9467-4.9722-1.9467-4.9722Z" fill="#b7202c"/><path d="M31.2081,41.3704l-2.5438-2.1347-4.8279,3.6706l4.4905,3.983c0,0,.5451.5727.9344-.5467.4673-1.3537,1.9468-4.9722,1.9468-4.9722Z" fill="#b7202c"/><path d="M35.7505,28.6665c0,0,3.4522,2.7073,5.0615-.5467c1.6093-3.2541-1.3238-5.2586-3.6079-4.0611-2.2842,1.2235-2.2583,4.1131-1.4536,4.6078Z" fill="#fac3b2"/><path d="M38.3721,24.7095c.597.2343,1.0902.7289,1.2979,1.3277.2076.6508.0519,1.3797-.3634,1.9004-.1558.1822.1557.4165.2855.2343.4932-.6248.6489-1.4839.4153-2.2388-.2077-.729-.8047-1.3277-1.5055-1.588-.2076-.0781-.3634.2863-.1298.3644Z" fill="#f6aa94"/><path d="M11.7407,31.2437c0,0-2.82931,3.3582-5.06157.5467-2.25822-2.8376.1817-5.4148,2.67352-4.7379c2.51775.6768,3.06285,3.5144,2.38805,4.1912Z" fill="#fac3b2"/><path d="M8.36632,27.9115c-.54508.3385-.90848.9372-.98634,1.588-.07787.6769.2336,1.3537.75273,1.7963.1817.1562-.05191.4425-.2336.2863-.597-.5206-.93444-1.3016-.88253-2.1086.05192-.7549.49318-1.4578,1.14209-1.8744.1817-.1301.41531.1823.20765.3124Z" fill="#f6aa94"/><path d="M24.4334,38.4287c3.0369-.3384,4.9058-1.3016,6.7228-2.3429c1.8688-1.0674,3.582-2.6033,4.5943-4.7119c1.3497-2.8376,1.6871-14.8647.5451-17.1295-1.2719-2.4991-2.9072-4.32142-5.5807-5.15446-2.9331-.88511-4.7241-1.14544-9.1627-.72892-4.4126.44256-6.1257,1.04131-8.8512,2.47308-2.4918,1.3017-3.73771,3.4103-4.49045,6.1177-.70083,2.4471,1.94675,14.2138,3.81565,16.739c1.3757,1.8743,3.3743,3.0718,5.3989,3.7226c1.9468.6769,3.9714,1.2756,7.0083,1.0153Z" fill="#fac3b2"/><path d="M16.4128,35.7213c-7.55332-5.2846-6.46315-17.4158-3.0369-25.2256-.2336.1042-.4672.2343-.7008.3645-2.4918,1.3016-3.73775,3.4103-4.49049,6.1177-.70083,2.447,1.94669,14.2138,3.81559,16.7389c1.3757,1.8744,3.3744,3.0719,5.399,3.7227c1.9727.6508,3.9973,1.2496,7.0342.9892c3.0369-.3384,4.9058-1.3016,6.7228-2.3429c1.8688-1.0673,3.582-2.6033,4.5943-4.7119.0259-.0521.0519-.1041.0519-.1302-.3374.3645-.7008.7289-1.0902,1.0674-4.9058,4.3995-12.9523,7.3672-18.2994,3.4102Z" fill="#f6aa94"/><path d="M24.096,26.9483c-.026-.0781-.1298-.2343-.2336-.2343s-.1298.3905-.2077.5727c-.0519.1822-.1817.3905-.4153.4426-.2855.052-.5451-.1562-.8306-.1562-.0259,0-.0259,0-.0519,0-.2336.1301-.1817.3384-.026.4686.1039.0781.2337.1041.3634.1301.2856.0521.5711.0781.8566,0s.5191-.2603.623-.4946c.1297-.2343.0519-.4946-.0779-.7289Z" fill="#c26e61"/><path d="M16.8972,28.2653c1.3304-.2143,2.2154-1.5964,1.9767-3.0868s-1.5108-2.525-2.8412-2.3106-2.2154,1.5963-1.9767,3.0868c.2388,1.4905,1.5108,2.5249,2.8412,2.3106Z" fill="#141415"/><path d="M15.0371,26.5578c-.1297-.9893.649-1.9004,1.7391-2.0306.9604-.1301,1.8429.4165,2.1285,1.2235-.026.9893-.5192,1.8744-1.3238,2.2909-.1038.0261-.2336.0521-.3375.0781-1.0901.1041-2.0765-.5727-2.2063-1.5619Z" fill="#1f1f21"/><path d="M16.3869,24.9177c.1038.3905.5191.5988.9604.5207.4413-.1041.7268-.4686.6229-.8591-.1038-.3905-.5191-.5987-.9603-.5206-.4413.1041-.7268.4946-.623.859Z" fill="#fff"/><path d="M32.4819,24.5432c.1541-1.5016-.8075-2.8311-2.1479-2.9695s-2.552.9667-2.7061,2.4683.8075,2.8312,2.1479,2.9696s2.5519-.9668,2.7061-2.4684Z" fill="#141415"/><path d="M28.4308,24.8657c.1297-.9893,1.1161-1.6661,2.2063-1.5099.9604.1302,1.6871.8851,1.7391,1.7181-.2856.9632-.9864,1.6661-1.8689,1.8744-.1038,0-.2336,0-.3634-.026-1.0642-.1302-1.8429-1.0674-1.7131-2.0566Z" fill="#1f1f21"/><path d="M30.1439,23.6421c0,.3905.3633.7289.8046.755s.8306-.2603.8306-.6508-.3634-.7289-.8046-.755-.8306.2864-.8306.6508Z" fill="#fff"/><path d="M13.7653,23.4859c-.1038,0-.2077-.026-.2855-.0781-.1558-.1301-.1558-.3644-.026-.4946c1.0642-1.1715,2.7514-1.7182,4.2828-1.4058.1817.0521.3115.2343.2596.4166s-.2336.3124-.4153.2603c-1.2978-.2864-2.7254.1822-3.6339,1.1715-.026.0781-.1038.1041-.1817.1301Z" fill="#141415"/><path d="M32.4021,21.4814c.1038,0,.1817-.052.2596-.1562.1038-.1562.0778-.3905-.0779-.4946-1.2719-.9372-3.0369-1.1194-4.4905-.4686-.1817.0781-.2596.2864-.1817.4686s.2855.2603.4672.1822c1.22-.5467,2.6995-.3905,3.7897.3905.0778.0781.1557.1042.2336.0781Z" fill="#141415"/><path d="M23.6807,31.2437c-1.22.0781-2.44-.0781-3.5561-.5467-.1038-.0521-.1557-.1822-.1298-.2863.0519-.1042.1817-.1562.2856-.1302c2.2841.9111,4.9836.6248,7.0342-.7289.1038-.0781.2336-.0521.3115.052s.0519.2343-.052.3124c-1.168.781-2.5177,1.2236-3.8934,1.3277Z" fill="#d15c58"/><path d="M29.5728,6.25236C22.9798,2.84209,13.9989,4.71644,9.32668,10.4696c-4.67218,5.7533-3.97135,13.7973.90852,19.3423c0,0,.2595-6.5082.3374-9.1635.0519-2.1347,1.1161-4.7119,1.1161-4.7119.2077,2.369.1039,4.2954-.597,6.5863c5.3471-.8071,10.5384-1.1194,15.8854-1.9265.2336-1.8483.3634-4.2953.623-4.3214.5451-.052.623,2.4471.3893,4.1913c1.4536-.2343,2.9591-.6248,3.8157-1.7702c1.2199-1.6401.4931-3.931-.3115-5.8053c0,0,1.5055,1.4057,2.6476,3.8788c1.168,2.4992,2.6994,8.6429,2.6994,8.6429c2.2323-7.0549-.6748-15.74976-7.2678-19.16004Z" fill="#1f1f21"/><path d="M30.8187,11.9796c.4413,1.4838.9864,2.9937,1.1161,4.5557.0779.7809-.9084,1.8743-1.9986,1.7702-.2336,0-.4413-.1562-.5192-.2864-.7267-1.1454-1.2718-3.9049-1.8169-3.7487-.2855.2343-.3894.5988-.4672.9112-.597,1.7962-.4153,4.2953-2.5178,4.8681-3.1667.859-10.6682.7809-11.2133.5467-.3374-.1302-.7008-.3385-.7527-.755-.1298-1.8223-.3634-3.8528-.597-5.6751-.2855.8591-.5191,1.7181-1.0123,2.7074.3634-.5727.6489-.9372.6489-.9372.2077,2.369.1038,4.2954-.597,6.5863c5.3471-.807,10.5384-1.1194,15.8854-1.9264.2336-1.8484.3634-4.2954.623-4.3215.5451-.052.6229,2.4471.3893,4.1913c1.4536-.2343,2.9591-.6248,3.8157-1.7702c1.2199-1.6401.4931-3.931-.3115-5.8053c0,0,.6489,1.9785,1.791,4.4255c1.168,2.4992,3.556,8.0962,3.556,8.0962.3375-1.0673-1.0902-7.8358-2.2582-9.9705-.7527-1.5099-2.4918-3.0458-3.7637-3.4623Z" fill="#1f1f21"/><path d="M18.4115,19.3468c.3114-.6769.571-1.3537.7786-2.0566s.3375-1.4318.4154-2.1607c.0519-.4165.0519-.8331.0778-1.2496c0-.0781-.0778-.1301-.1557-.1301s-.1298.0781-.1298.1562c0,.7289-.0779,1.4317-.2077,2.1346s-.3114,1.4058-.545,2.0826c-.1298.3905-.2856.755-.4673,1.1194-.0778.1562.1558.2604.2337.1042Z" fill="#141415"/><path d="M25.264,19.0344c.0779-1.0413,0-2.0826-.2076-3.0979s-.5451-2.0045-1.0383-2.9417c-.2596-.5207-.571-1.0153-.9344-1.4839-.1039-.1301-.3115.0261-.2077.1562.597.8331,1.0902,1.7182,1.4276,2.6814.3634.9632.5711,1.9524.6749,2.9677.0519.5727.0519,1.1455.026,1.6921c0,.0781.0259.1302.1038.1562.0779,0,.1557-.052.1557-.1301Z" fill="#141415"/><path d="M27.678,15.546c-.2336.2343-.2856.5988-.3375.9372-.2595,1.3276-.2076,2.6032-.597,3.9049-5.0615.4425-10.0711,1.0413-15.1067,1.614.597-3.8008.5451-5.8313.4672-8.8511-.0259,1.2496-.3115,7.0809-.9863,9.3717c5.347-.807,10.5383-1.1194,15.8854-1.9264.2336-1.8483.3634-4.2954.6229-4.3214.5451-.0521.623,2.4471.3894,4.1913c1.3238-.2083,2.7254-.5728,3.582-1.5099-.8825.5987-1.9727.859-3.0629.9632.1039-1.4578.2336-3.3322-.8565-4.3735Z" fill="#1f1f21"/><path d="M30.1957,10.73c.0779.3644.2077.6768.3115.9892c1.0902,2.2128,1.8689,4.764,1.1162,7.133.0519-.0781.1038-.1302.1817-.2083c1.2199-1.614-1.0643-7.185-1.6094-7.9139Z" fill="#141415"/><path d="M19.4238,0.967727C33.8817,0.447075,35.6727,3.90941,36.5811,13.3853c-8.1244-3.2281-23.5945-1.1975-30.5768,4.035C4.42095,8.02257,5.25156,4.22181,19.3719,0.99376l.0519-.026033Z" clip-rule="evenodd" fill="#d12a27" fill-rule="evenodd"/><path d="M20.0468,0.941742c4.6462-.130163,7.9167.156198,10.2528.963208c3.011,2.21277,4.0752,6.35196,4.6462,10.93375-7.735-2.2389-20.1942-.6509-27.2284,3.4623-.64891-4.6859-.64891-9.05936,1.9727-11.94898c2.0765-1.24957,5.0875-2.29087,9.3184-3.28011.2077.02603.4153.05206.5711.02603.1297-.02603.2855-.0781.4672-.156198Z" clip-rule="evenodd" fill="#db2d27" fill-rule="evenodd"/><path d="M18.4894,1.5665l1.765-.23429c.1817-.02603.3115-.1562.3115-.31239-.026-.156199-.1817-.234298-.3634-.234298l-1.765.234298c-.1817.02603-.3115.15619-.3115.31239.0259.15619.1817.26032.3634.23429Z" clip-rule="evenodd" fill="#aa2223" fill-rule="evenodd"/><path d="M36.633,13.8018c.7528,1.1715,1.2719,2.343,1.6872,3.5405.7528,2.2128.6749,2.447-2.3361,1.7702-12.9523-2.9157-16.5343-2.4731-27.92923,3.6706-2.72544,1.4578-2.88118,1.2235-2.72544-1.0934.10383-1.2495.31148-2.5512.72678-3.8528C9.768,12.344,31.2341,9.50646,36.633,13.8018Z" clip-rule="evenodd" fill="#aa2223" fill-rule="evenodd"/><path d="M36.5552,13.3853c.7527,1.1715,1.2718,2.343,1.6871,3.5405.7528,2.1867.6749,2.421-2.3361,1.7702-12.9523-2.8636-16.5343-2.421-27.92921,3.6706-2.72544,1.4578-2.88118,1.2235-2.72544-1.0934.10382-1.2495.31148-2.5512.72678-3.8528C9.71608,11.9275,31.1821,9.08995,36.5552,13.3853Z" clip-rule="evenodd" fill="#c62927" fill-rule="evenodd"/><path d="M22.0455,9.89699c-.1298,0-.2336.02603-.3634.02603-.026-.36445-.0779-.75494-.1039-1.1194.1298,0,.2337-.02603.3634-.02603.052.36445.0779.72891.1039,1.1194Z" fill="#fff"/><path d="M23.1616,8.80359c-.026-.02603-.026-.05206-.0519-.07809s-.0519-.02604-.0519-.02604h-.026c-.0779,0-.1557,0-.2336.02604-.026,0-.026,0-.0519,0s-.0519.02603-.0519.05206c-.026.02603-.026.05207-.0519.0781-.1298.33842-.2596.70288-.3894,1.04131.0519,0,.1298,0,.1817-.02604.0519-.10413.0779-.23429.1298-.33842.2076-.02603.3893-.02603.597-.02603.0519.10413.1038.20826.1557.31239.1298,0,.2336,0,.3634-.02603-.1817-.33843-.3634-.67685-.5191-.98925Zm-.5711.57272c.0779-.18223.1298-.36445.2077-.54668.1038.18223.1817.33842.2855.52065-.1557.02603-.3374.02603-.4932.02603Z" fill="#fff"/><path d="M21.2667,9.63665c-.0519-.10413-.1297-.1562-.2336-.18223.1558-.05206.2336-.15619.2336-.31239-.0259-.18223-.1557-.31239-.4672-.28636-.1817.02604-.3634.05207-.5451.05207-.0778,0-.1297.0781-.1038.15619.0519.33843.0779.65082.1298.98927.1038-.0261.2076-.0261.3115-.0261-.026-.15616-.026-.31235-.0519-.46855.0519,0,.1038,0,.1297-.02603.1298-.02603.2077.02603.2596.13016s.1298.20826.1817.28636c.1298,0,.2336-.02603.3634-.02603-.0779-.0781-.1298-.18223-.2077-.28636Zm-.5191-.23429c-.0779,0-.1557.02603-.2596.02603c0-.10413-.0259-.20826-.0259-.31239c0-.02603.0259-.0781.0519-.0781.0519,0,.1298-.02603.1817-.02603.1298-.02603.2077.0781.2336.18223s-.0519.20826-.1817.20826Z" fill="#fff"/><path d="M15.1151,9.84488c-.4413.10413-.649.44252-.5451.78102.0778.3384.4153.5206.8565.4165.4413-.1042.623-.4426.5711-.755-.1038-.33839-.4413-.54665-.8825-.44252Zm.2595,1.06732c-.2076.0521-.4153-.1041-.4932-.3644-.0778-.2604.052-.4947.2596-.57276.2077-.05207.4153.13016.4932.36446.0519.2603-.0519.5206-.2596.5727Z" fill="#fff"/><path d="M15.9457,9.8449c.1557-.02604.3114-.0781.4672-.10413.0778.31243.1298.65083.2076.96323.1038-.0261.2336-.0521.3375-.0781-.0779-.3124-.1298-.65084-.2077-.96323.1298-.02603.2596-.05207.3894-.0781c0-.05207-.026-.0781-.026-.13016-.4153.07809-.8306.15619-1.22.26032.026.02604.026.0781.052.13017Z" fill="#fff"/><path d="M17.2954,9.55855c.1298-.02603.2596-.05207.3893-.0781.052.31239.1298.65085.1817.96325.1039-.0261.2337-.0521.3375-.0521-.0519-.3384-.1038-.65082-.1817-.98925.1557-.02603.3115-.05206.4672-.0781c0-.05206-.026-.07809-.026-.13016-.4153.0781-.8306.13017-1.2459.2343.0519.02603.0779.07809.0779.13016Z" fill="#fff"/><path d="M13.973,11.1465c-.0779-.2863-.1558-.5987-.2596-.8851-.1038.026-.2336.0521-.3374.1041.1038.3124.1817.6248.2855.9633.026.0781.1038.1041.1557.0781.2856-.0781.5711-.1562.8307-.2343c0-.0521-.026-.0781-.026-.1302-.1817.0521-.3894.1041-.5711.1562-.0259,0-.0778,0-.0778-.0521Z" fill="#fff"/><path d="M18.723,9.2982c.0519.28636.0779.57272.1298.8591c0,.0781.0779.1301.1557.1041.3115-.0521.623-.1041.9085-.1302c0-.052,0-.0781-.0259-.1301-.2077.026-.4413.052-.6489.1041-.026,0-.0779-.026-.0779-.0521-.026-.10408-.026-.20821-.0519-.33838.2336-.02603.4672-.0781.7268-.10413c0-.05206,0-.0781-.026-.13016-.2336.02603-.4672.0781-.7268.10413-.0259-.0781-.0259-.18223-.0519-.26033c0-.02603.026-.0781.0519-.0781.2336-.02603.4413-.05206.6749-.10413c0-.05206,0-.07809-.026-.13016-.3114.05207-.6229.0781-.9344.13016-.026,0-.0779.0781-.0779.1562Z" fill="#fff"/><path d="M26.51,8.41308c-.0259-.1562-.1557-.26033-.3115-.31239-.5191-.0781-1.0123-.0781-1.5314,0-.1557.02603-.2855.15619-.3115.31239-.0519.49462-.0519.9632.0519,1.45782.026.1302.1558.2603.3115.2864.4932.052.9604.052,1.4536,0c.1557-.0261.2855-.1562.3115-.2864.0519-.49462.0778-.98923.0259-1.45782ZM24.5892,9.42835c.1039-.31239.1817-.62478.2856-.93717.1297,0,.2595,0,.3893,0-.0779.28635-.1817.57271-.2596.83304c0,.02603,0,.05206.026.05206.2077,0,.3893,0,.597,0-.026.0781-.0519.1562-.0779.2343-.2855,0-.5451,0-.8306,0-.1038-.02604-.1557-.10413-.1298-.18223Zm1.1421.36446c-.1557,0-.3115-.05207-.4153-.1562.0779,0,.1558,0,.2336,0h.026v-.02603c.0259-.0781.0519-.1562.0779-.2343c0-.02603,0-.02603.0259-.05206-.0259,0-.0259,0-.0519,0-.1557,0-.3115,0-.4932,0c0-.02603,0-.0781,0-.10413c0-.31239.2596-.59875.597-.59875s.597.26033.597.59875c0,.31239-.2855.57272-.597.57272Z" fill="#fff"/><path d="M26.7177,9.81885c0,0,.0259,0,.0519,0s.026,0,.0519,0v.02603c0,.02603-.0259.02603-.0259.02603l.0259.02604c0,.02603,0,.02603,0,.05206h-.0259v-.02603c0-.02604,0-.02603-.026-.02603c0,.02603,0,.02603,0,.05206h-.026c-.0519-.02603-.0519-.0781-.0259-.13016Zm.0259.0781c.026,0,.026-.00001.026-.02604c0,0,0-.02603-.026-.02603c0,0,0,0-.0259,0c.0259.02603.0259.02603.0259.05207Z" fill="#fff"/><path d="M26.7436,10.0271c-.0779,0-.1298-.07809-.1298-.13015c0-.0781.0779-.13017.1558-.13017s.1298.0781.1298.13017c-.026.0781-.0779.13015-.1558.13015Zm0-.26032c-.0519,0-.1038.05207-.1298.10413c0,.05207.0519.10414.1039.10414s.1038-.05207.1297-.10414c.026-.02603-.0259-.07809-.1038-.10413Z" fill="#fff"/><path d="M19.1642,51.1587v.1561h-.0259v-.1561h-.0519v-.0261h.1297v.0261h-.0519Z" fill="#fff"/><path d="M19.3459,51.3148v-.1041l-.0519.0781h-.0259l-.052-.0781v.1041h-.0259v-.1822h.0259l.052.1041.0519-.1041h.0259v.1822Z" fill="#fff"/><path d="M19.0604,49.4145c-.0259-.1562-.1557-.2864-.3374-.3124-.5451-.0781-1.0642-.0781-1.6093,0-.1558.026-.2856.1562-.3375.3124-.0778.5467-.0778,1.0673,0,1.588.026.1562.1558.2863.3375.3124.5451.0781,1.0642.0781,1.6093,0c.1557-.0261.2855-.1562.3374-.3124.0519-.5207.0519-1.0413,0-1.588Zm-2.0506,1.1194l.3115-1.0153h.3894l-.2855.9112c0,.026,0,.052.0259.052h.6489l-.0778.2343h-.8826c-.1038.0261-.1557-.0781-.1298-.1822Zm1.22.4165c-.1817,0-.3374-.0781-.4413-.1822h.2596.026v-.026l.0778-.2343.026-.0521h-.0519-.5192c0-.026,0-.0781,0-.1302c0-.3644.2856-.6508.649-.6508s.6489.2864.6489.6508c-.026.3385-.3115.6248-.6749.6248Z" fill="#fff"/><path d="M18.3856,60.4523c0,0,1.1161-.3905,1.8688,0c.7787.3905,3.0629,3.3322,3.3484,3.6446.3115.3644-.4931.807-.8046.6508-.6749-.3384-2.6476-2.9938-3.0629-3.1239-.4153-.1302-1.9467.3384-1.9467.3384l.597-1.5099Z" fill="#fac3b2"/><path d="M17.6069,61.5977c0,0,1.1161-.3904,1.8688,0c.7787.3905,2.7514,3.0198,3.1408,3.4624.3893.4686-.5192.807-.9085.5987-.6489-.3904-2.4659-2.5251-2.9071-2.6553-.4153-.1302-1.843.0781-1.843.0781l.649-1.4839Z" fill="#fac3b2"/><path d="M16.5946,63.2638c0,0,1.0123-.5987,1.7391-.4425.7268.1822,2.5956,2.1086,2.959,2.421s-.4672.8591-.8306.755c-.6229-.2083-2.3361-1.7182-2.7254-1.7442s-1.7131.4946-1.7131.4946l.571-1.4839Z" fill="#fac3b2"/><path d="M15.6342,64.175c0,0,.9344-.7029,1.5314-.3905.4413.2343,2.1544,1.5359,2.4919,1.8223.3374.2863.1038.8851-.2077.781-.5451-.1823-2.1544-1.2496-2.5178-1.2756-.3634-.0261-1.8169.3644-1.8169.3644l.5191-1.3016Z" fill="#fac3b2"/><path d="M16.335,60.6345c0,0,1.1162-.833,1.6093-.8851.3375-.052,1.9727.7289,1.9727.7289l-1.4276.2343-2.1544-.0781Z" fill="#fac3b2"/><path d="M18.5673,60.4784l-1.6872,4.6338c0,0-1.5574,1.0413-2.3101.3645-.7528-.6769-1.3757-.781-1.2719-1.3798.1298-.5727,2.1803-3.0458,3.1407-3.5925.9864-.5207,2.1285-.026,2.1285-.026Z" fill="#fac3b2"/><path d="M17.7367,61.78c0,0-9.26654-1.7442-10.90181-1.6661-1.63526.1041-6.748706,4.5817-3.03692,5.5189s12.45913-.4165,12.45913-.4165L17.7367,61.78Z" fill="#fac3b2"/><path d="M23.2394,36.6325C10.313,38.663,8.8335,32.0507,8.8335,31.9987l.25956-.0521c.02596.0521,1.45354,6.4301,14.12034,4.4516l.026.2343Z" fill="#b3b2b3"/><path d="M23.5509,37.049l-1.3238.2083c-.3115.052-.623-.1562-.6749-.4686s.1558-.5988.4932-.6508l1.3238-.2083c.3115-.0521.6229.1562.6749.4686.0259.3124-.1817.5987-.4932.6508Z" fill="#404041"/><path d="M6.44553,21.2992c-.10382-1.2495-.12978-3.1759.20766-5.2586.38934-2.3689,1.16804-4.4515,2.33609-6.22175C11.2735,6.38254,14.9074,4.32596,19.8132,3.64911l.4931-.05206.597-.0781c.7787-.0781,1.5574-.10413,2.3102-.0781c3.8935.0781,7.138,1.32767,9.6558,3.69664c1.5574,1.45782,2.8033,3.33221,3.7378,5.54491.8306,1.9525,1.2199,3.8529,1.4276,5.0764l.0778.4946-.4931.0781c-.2856.0521-.597.0781-.8826.1041l-.4672.0521-.0779-.4686c-.3893-2.2908-1.4795-6.5862-4.5683-9.50188C29.443,6.48667,26.6138,5.3933,23.1875,5.3152c-.8306-.02603-1.7131.02604-2.5956.13017-4.6203.52065-7.9947,2.34293-10.0452,5.44083-2.33612,3.5404-2.41399,7.992-2.23229,10.3089l.05191.5467h-.54509c-.33743,0-.597,0-.85656,0l-.46722.0521-.05192-.4947Z" fill="#898f90"/><path d="M39.5142,19.9716c.8046-.0781,1.5314.4686,1.6352,1.2756l.5451,4.7119c.1038.781-.4932,1.5099-1.2978,1.588-.8047.0781-1.5315-.4686-1.6353-1.2756l-.5451-4.7119c-.0778-.781.4932-1.4839,1.2979-1.588Z" fill="#979797"/><path d="M37.23,17.5505c1.5055-.1562,2.8552.8851,3.0369,2.343l.8306,7.1589c.1817,1.4579-.9085,2.7855-2.4139,2.9417s-1.6353-1.0152-1.791-2.4731l-.8306-7.1589c-.1817-1.4579-.3115-2.6554,1.168-2.8116Z" fill="#898f90"/><path d="M38.6317,29.4995c-.597,0-.7528-.3384-.9604-2.0045l-.8566-7.211c-.0778-.6508-.1557-1.2756-.0519-1.6921.0519-.2343.1557-.4426.7527-.5207.1039,0,.2077-.026.2856-.026c1.0901.026,1.9986.833,2.1284,1.9003l.8306,7.159c.1298,1.1715-.7268,2.2388-1.9208,2.369-.0519,0-.1298.026-.2076.026Z" fill="#93999b"/><path d="M39.3584,28.7446c-.1038-.1302-1.3756-10.1007-1.2978-10.1007.8047.0261,1.4536.5988,1.5574,1.3797l.8306,7.159c.0519.4165-.0779.807-.3374,1.1455s-.7528.4165-.7528.4165Z" fill="#a9aeb0"/><path d="M5.45915,23.7203c-.80465.1041-1.37569.833-1.24591,1.614l.67487,4.6859c.10383.781.85657,1.3277,1.66122,1.2235s1.3757-.833,1.24591-1.614l-.67487-4.6859c-.10382-.7809-.85656-1.3276-1.66122-1.2235Z" fill="#979797"/><path d="M7.04249,20.8046c-1.47953.2083-2.54375,1.562-2.3361,3.0198l1.03827,7.133c.20765,1.4578,1.60931,2.4731,3.08883,2.2648s1.29781-1.3797,1.09018-2.8376L8.8854,23.2517c-.18169-1.4578-.33743-2.6553-1.84291-2.4471Z" fill="#898f90"/><path d="M8.78157,32.7016c.57105-.1562.64892-.5207.41531-2.1607l-1.03826-7.185c-.10383-.6509-.1817-1.2756-.38935-1.6401-.10383-.2083-.28552-.3905-.85657-.3124-.10382.026-.18169.026-.28552.0521-1.03826.2863-1.71313,1.3016-1.58335,2.3429l1.03826,7.1329c.15574,1.1715,1.27188,1.9785,2.46588,1.8223.07787,0,.15574-.026.2336-.052Z" fill="#93999b"/><path d="M7.89905,32.1809c.05191-.1562-1.29783-10.1267-1.34975-10.1006-.77869.2082-1.27187.9371-1.14209,1.7181l1.03827,7.1329c.05191.4166.28552.781.62295,1.0153.31148.2603.80466.2343.83062.2343Z" fill="#a9aeb0"/><path d="M49.1959,47.7484h-23.257c-.6489,0-1.3238.5466-1.4796,1.1975L20.7216,65.4505c-.1557.6509.2596,1.1975.9344,1.1975h23.2571c.6489,0,1.3238-.5466,1.4795-1.1975l3.7378-16.5046c.1557-.6509-.2596-1.1975-.9345-1.1975Z" fill="#58595b"/><path d="M49.8449,47.7484h-23.2571c-.6489,0-1.3238.5466-1.4795,1.1975L21.3705,65.4505c-.1557.6509.2596,1.1975.9345,1.1975h23.257c.649,0,1.3238-.5466,1.4796-1.1975l3.7377-16.5046c.1558-.6509-.2595-1.1975-.9344-1.1975Z" fill="#404041"/><path d="M13.5576,67.6113h32.29c.2595,0,.4672-.2083.4672-.4686c0-.2604-.2077-.4686-.4672-.4686h-32.29c-.2596,0-.4672.2082-.4672.4686c0,.2603.2076.4686.4672.4686Z" fill="#58595b"/><path d="M20.462,67.6113h25.3856c.2595,0,.4672-.2083.4672-.4686c0-.2604-.2077-.4686-.4672-.4686h-25.3856c-.2595,0-.4672.2082-.4672.4686c0,.2603.2077.4686.4672.4686Z" fill="#404041"/><path d="M19.2161,67.1427c0,.1041-.0779.1822-.1817.1822s-.1817-.0781-.1817-.1822.0779-.1823.1817-.1823.1817.0782.1817.1823Z" fill="#f05a26"/><path d="M35.9992,50C31.493,50,28,53.3008,28,57.7592c0,2.3321.9558,4.3473,2.5122,5.7392.1307.1169.2095.2808.2149.4561l.0435,1.4229c.0139.4539.4828.7492.8981.5658l1.5877-.7009c.1346-.0593.2854-.0704.4273-.0314.7296.2007,1.5061.3076,2.3155.3076c4.5062,0,7.9992-3.3009,7.9992-7.7593s-3.493-7.7592-7.9992-7.7592v0Z" clip-rule="evenodd" fill="url(#eZ1dLaTGr4f83-fill)" fill-rule="evenodd"/><path d="M31.196,60.0284l2.3498-3.7279c.3738-.5931,1.1742-.7408,1.735-.3202l1.8689,1.4017c.1715.1287.4074.1279.5781-.0016l2.5241-1.9156c.3369-.2557.7766.1475.5512.5053l-2.3498,3.728c-.3738.593-1.1742.7407-1.735.3201l-1.8689-1.4018c-.1715-.1285-.4074-.1278-.5782.0017l-2.524,1.9156c-.3369.2556-.7767-.1475-.5512-.5053v0Z" clip-rule="evenodd" fill="#fff" fill-rule="evenodd"/></g><script><![CDATA[!function(t,n){"object"==typeof exports&&"undefined"!=typeof module?module.exports=n():"function"==typeof define&&define.amd?define(n):((t="undefined"!=typeof globalThis?globalThis:t||self).__SVGATOR_PLAYER__=t.__SVGATOR_PLAYER__||{},t.__SVGATOR_PLAYER__["5c7f360c"]=n())}(this,(function(){"use strict";function t(t,n){var e=Object.keys(t);if(Object.getOwnPropertySymbols){var r=Object.getOwnPropertySymbols(t);n&&(r=r.filter((function(n){return Object.getOwnPropertyDescriptor(t,n).enumerable}))),e.push.apply(e,r)}return e}function n(n){for(var e=1;e<arguments.length;e++){var r=null!=arguments[e]?arguments[e]:{};e%2?t(Object(r),!0).forEach((function(t){o(n,t,r[t])})):Object.getOwnPropertyDescriptors?Object.defineProperties(n,Object.getOwnPropertyDescriptors(r)):t(Object(r)).forEach((function(t){Object.defineProperty(n,t,Object.getOwnPropertyDescriptor(r,t))}))}return n}function e(t){return(e="function"==typeof Symbol&&"symbol"==typeof Symbol.iterator?function(t){return typeof t}:function(t){return t&&"function"==typeof Symbol&&t.constructor===Symbol&&t!==Symbol.prototype?"symbol":typeof t})(t)}function r(t,n){if(!(t instanceof n))throw new TypeError("Cannot call a class as a function")}function i(t,n){for(var e=0;e<n.length;e++){var r=n[e];r.enumerable=r.enumerable||!1,r.configurable=!0,"value"in r&&(r.writable=!0),Object.defineProperty(t,r.key,r)}}function u(t,n,e){return n&&i(t.prototype,n),e&&i(t,e),t}function o(t,n,e){return n in t?Object.defineProperty(t,n,{value:e,enumerable:!0,configurable:!0,writable:!0}):t[n]=e,t}function a(t){return(a=Object.setPrototypeOf?Object.getPrototypeOf:function(t){return t.__proto__||Object.getPrototypeOf(t)})(t)}function l(t,n){return(l=Object.setPrototypeOf||function(t,n){return t.__proto__=n,t})(t,n)}function s(){if("undefined"==typeof Reflect||!Reflect.construct)return!1;if(Reflect.construct.sham)return!1;if("function"==typeof Proxy)return!0;try{return Boolean.prototype.valueOf.call(Reflect.construct(Boolean,[],(function(){}))),!0}catch(t){return!1}}function f(t,n,e){return(f=s()?Reflect.construct:function(t,n,e){var r=[null];r.push.apply(r,n);var i=new(Function.bind.apply(t,r));return e&&l(i,e.prototype),i}).apply(null,arguments)}function c(t,n){if(n&&("object"==typeof n||"function"==typeof n))return n;if(void 0!==n)throw new TypeError("Derived constructors may only return object or undefined");return function(t){if(void 0===t)throw new ReferenceError("this hasn't been initialised - super() hasn't been called");return t}(t)}function h(t,n,e){return(h="undefined"!=typeof Reflect&&Reflect.get?Reflect.get:function(t,n,e){var r=function(t,n){for(;!Object.prototype.hasOwnProperty.call(t,n)&&null!==(t=a(t)););return t}(t,n);if(r){var i=Object.getOwnPropertyDescriptor(r,n);return i.get?i.get.call(e):i.value}})(t,n,e||t)}function v(t){return function(t){if(Array.isArray(t))return y(t)}(t)||function(t){if("undefined"!=typeof Symbol&&null!=t[Symbol.iterator]||null!=t["@@iterator"])return Array.from(t)}(t)||function(t,n){if(!t)return;if("string"==typeof t)return y(t,n);var e=Object.prototype.toString.call(t).slice(8,-1);"Object"===e&&t.constructor&&(e=t.constructor.name);if("Map"===e||"Set"===e)return Array.from(t);if("Arguments"===e||/^(?:Ui|I)nt(?:8|16|32)(?:Clamped)?Array$/.test(e))return y(t,n)}(t)||function(){throw new TypeError("Invalid attempt to spread non-iterable instance.\nIn order to be iterable, non-array objects must have a [Symbol.iterator]() method.")}()}function y(t,n){(null==n||n>t.length)&&(n=t.length);for(var e=0,r=new Array(n);e<n;e++)r[e]=t[e];return r}Number.isInteger||(Number.isInteger=function(t){return"number"==typeof t&&isFinite(t)&&Math.floor(t)===t}),Number.EPSILON||(Number.EPSILON=2220446049250313e-31);var g=d(Math.pow(10,-6));function d(t){var n=arguments.length>1&&void 0!==arguments[1]?arguments[1]:6;if(Number.isInteger(t))return t;var e=Math.pow(10,n);return Math.round((+t+Number.EPSILON)*e)/e}function p(t,n){var e=arguments.length>2&&void 0!==arguments[2]?arguments[2]:g;return Math.abs(t-n)<e}var m=Math.PI/180;function b(t){return t}function w(t,n,e){var r=1-e;return 3*e*r*(t*r+n*e)+e*e*e}function x(){var t=arguments.length>0&&void 0!==arguments[0]?arguments[0]:0,n=arguments.length>1&&void 0!==arguments[1]?arguments[1]:0,e=arguments.length>2&&void 0!==arguments[2]?arguments[2]:1,r=arguments.length>3&&void 0!==arguments[3]?arguments[3]:1;return t<0||t>1||e<0||e>1?null:p(t,n)&&p(e,r)?b:function(i){if(i<=0)return t>0?i*n/t:0===n&&e>0?i*r/e:0;if(i>=1)return e<1?1+(i-1)*(r-1)/(e-1):1===e&&t<1?1+(i-1)*(n-1)/(t-1):1;for(var u,o=0,a=1;o<a;){var l=w(t,e,u=(o+a)/2);if(p(i,l))break;l<i?o=u:a=u}return w(n,r,u)}}function A(){return 1}function k(t){return 1===t?1:0}function _(){var t=arguments.length>0&&void 0!==arguments[0]?arguments[0]:1,n=arguments.length>1&&void 0!==arguments[1]?arguments[1]:0;if(1===t){if(0===n)return k;if(1===n)return A}var e=1/t;return function(t){return t>=1?1:(t+=n*e)-t%e}}var S=Math.sin,O=Math.cos,j=Math.acos,M=Math.asin,P=Math.tan,E=Math.atan2,I=Math.PI/180,R=180/Math.PI,F=Math.sqrt,N=function(){function t(){var n=arguments.length>0&&void 0!==arguments[0]?arguments[0]:1,e=arguments.length>1&&void 0!==arguments[1]?arguments[1]:0,i=arguments.length>2&&void 0!==arguments[2]?arguments[2]:0,u=arguments.length>3&&void 0!==arguments[3]?arguments[3]:1,o=arguments.length>4&&void 0!==arguments[4]?arguments[4]:0,a=arguments.length>5&&void 0!==arguments[5]?arguments[5]:0;r(this,t),this.m=[n,e,i,u,o,a],this.i=null,this.w=null,this.s=null}return u(t,[{key:"determinant",get:function(){var t=this.m;return t[0]*t[3]-t[1]*t[2]}},{key:"isIdentity",get:function(){if(null===this.i){var t=this.m;this.i=1===t[0]&&0===t[1]&&0===t[2]&&1===t[3]&&0===t[4]&&0===t[5]}return this.i}},{key:"point",value:function(t,n){var e=this.m;return{x:e[0]*t+e[2]*n+e[4],y:e[1]*t+e[3]*n+e[5]}}},{key:"translateSelf",value:function(){var t=arguments.length>0&&void 0!==arguments[0]?arguments[0]:0,n=arguments.length>1&&void 0!==arguments[1]?arguments[1]:0;if(!t&&!n)return this;var e=this.m;return e[4]+=e[0]*t+e[2]*n,e[5]+=e[1]*t+e[3]*n,this.w=this.s=this.i=null,this}},{key:"rotateSelf",value:function(){var t=arguments.length>0&&void 0!==arguments[0]?arguments[0]:0;if(t%=360){var n=S(t*=I),e=O(t),r=this.m,i=r[0],u=r[1];r[0]=i*e+r[2]*n,r[1]=u*e+r[3]*n,r[2]=r[2]*e-i*n,r[3]=r[3]*e-u*n,this.w=this.s=this.i=null}return this}},{key:"scaleSelf",value:function(){var t=arguments.length>0&&void 0!==arguments[0]?arguments[0]:1,n=arguments.length>1&&void 0!==arguments[1]?arguments[1]:1;if(1!==t||1!==n){var e=this.m;e[0]*=t,e[1]*=t,e[2]*=n,e[3]*=n,this.w=this.s=this.i=null}return this}},{key:"skewSelf",value:function(t,n){if(n%=360,(t%=360)||n){var e=this.m,r=e[0],i=e[1],u=e[2],o=e[3];t&&(t=P(t*I),e[2]+=r*t,e[3]+=i*t),n&&(n=P(n*I),e[0]+=u*n,e[1]+=o*n),this.w=this.s=this.i=null}return this}},{key:"resetSelf",value:function(){var t=arguments.length>0&&void 0!==arguments[0]?arguments[0]:1,n=arguments.length>1&&void 0!==arguments[1]?arguments[1]:0,e=arguments.length>2&&void 0!==arguments[2]?arguments[2]:0,r=arguments.length>3&&void 0!==arguments[3]?arguments[3]:1,i=arguments.length>4&&void 0!==arguments[4]?arguments[4]:0,u=arguments.length>5&&void 0!==arguments[5]?arguments[5]:0,o=this.m;return o[0]=t,o[1]=n,o[2]=e,o[3]=r,o[4]=i,o[5]=u,this.w=this.s=this.i=null,this}},{key:"recomposeSelf",value:function(){var t=arguments.length>0&&void 0!==arguments[0]?arguments[0]:null,n=arguments.length>1&&void 0!==arguments[1]?arguments[1]:null,e=arguments.length>2&&void 0!==arguments[2]?arguments[2]:null,r=arguments.length>3&&void 0!==arguments[3]?arguments[3]:null,i=arguments.length>4&&void 0!==arguments[4]?arguments[4]:null;return this.isIdentity||this.resetSelf(),t&&(t.x||t.y)&&this.translateSelf(t.x,t.y),n&&this.rotateSelf(n),e&&(e.x&&this.skewSelf(e.x,0),e.y&&this.skewSelf(0,e.y)),!r||1===r.x&&1===r.y||this.scaleSelf(r.x,r.y),i&&(i.x||i.y)&&this.translateSelf(i.x,i.y),this}},{key:"decompose",value:function(){var t=arguments.length>0&&void 0!==arguments[0]?arguments[0]:0,n=arguments.length>1&&void 0!==arguments[1]?arguments[1]:0,e=this.m,r=e[0]*e[0]+e[1]*e[1],i=[[e[0],e[1]],[e[2],e[3]]],u=F(r);if(0===u)return{origin:{x:d(e[4]),y:d(e[5])},translate:{x:d(t),y:d(n)},scale:{x:0,y:0},skew:{x:0,y:0},rotate:0};i[0][0]/=u,i[0][1]/=u;var o=e[0]*e[3]-e[1]*e[2]<0;o&&(u=-u);var a=i[0][0]*i[1][0]+i[0][1]*i[1][1];i[1][0]-=i[0][0]*a,i[1][1]-=i[0][1]*a;var l=F(i[1][0]*i[1][0]+i[1][1]*i[1][1]);if(0===l)return{origin:{x:d(e[4]),y:d(e[5])},translate:{x:d(t),y:d(n)},scale:{x:d(u),y:0},skew:{x:0,y:0},rotate:0};i[1][0]/=l,i[1][1]/=l,a/=l;var s=0;return i[1][1]<0?(s=j(i[1][1])*R,i[0][1]<0&&(s=360-s)):s=M(i[0][1])*R,o&&(s=-s),a=E(a,F(i[0][0]*i[0][0]+i[0][1]*i[0][1]))*R,o&&(a=-a),{origin:{x:d(e[4]),y:d(e[5])},translate:{x:d(t),y:d(n)},scale:{x:d(u),y:d(l)},skew:{x:d(a),y:0},rotate:d(s)}}},{key:"clone",value:function(){var t=this.m;return new this.constructor(t[0],t[1],t[2],t[3],t[4],t[5])}},{key:"toString",value:function(){var t=arguments.length>0&&void 0!==arguments[0]?arguments[0]:" ";if(null===this.s){var n=this.m.map((function(t){return d(t)}));1===n[0]&&0===n[1]&&0===n[2]&&1===n[3]?this.s="translate("+n[4]+t+n[5]+")":this.s="matrix("+n.join(t)+")"}return this.s}}],[{key:"create",value:function(t){return t?Array.isArray(t)?f(this,v(t)):t instanceof this?t.clone():(new this).recomposeSelf(t.origin,t.rotate,t.skew,t.scale,t.translate):new this}}]),t}();function T(t,n,e){return t>=.5?e:n}function q(t,n,e){return 0===t||n===e?n:t*(e-n)+n}function B(t,n,e){var r=q(t,n,e);return r<=0?0:r}function L(t,n,e){var r=q(t,n,e);return r<=0?0:r>=1?1:r}function C(t,n,e){return 0===t?n:1===t?e:{x:q(t,n.x,e.x),y:q(t,n.y,e.y)}}function D(t,n,e){var r=function(t,n,e){return Math.round(q(t,n,e))}(t,n,e);return r<=0?0:r>=255?255:r}function z(t,n,e){return 0===t?n:1===t?e:{r:D(t,n.r,e.r),g:D(t,n.g,e.g),b:D(t,n.b,e.b),a:q(t,null==n.a?1:n.a,null==e.a?1:e.a)}}function V(t,n){for(var e=[],r=0;r<t;r++)e.push(n);return e}function G(t,n){if(--n<=0)return t;var e=(t=Object.assign([],t)).length;do{for(var r=0;r<e;r++)t.push(t[r])}while(--n>0);return t}var Y,$=function(){function t(n){r(this,t),this.list=n,this.length=n.length}return u(t,[{key:"setAttribute",value:function(t,n){for(var e=this.list,r=0;r<this.length;r++)e[r].setAttribute(t,n)}},{key:"removeAttribute",value:function(t){for(var n=this.list,e=0;e<this.length;e++)n[e].removeAttribute(t)}},{key:"style",value:function(t,n){for(var e=this.list,r=0;r<this.length;r++)e[r].style[t]=n}}]),t}(),U=/-./g,Q=function(t,n){return n.toUpperCase()};function H(t){return"function"==typeof t?t:T}function J(t){return t?"function"==typeof t?t:Array.isArray(t)?function(t){var n=arguments.length>1&&void 0!==arguments[1]?arguments[1]:b;if(!Array.isArray(t))return n;switch(t.length){case 1:return _(t[0])||n;case 2:return _(t[0],t[1])||n;case 4:return x(t[0],t[1],t[2],t[3])||n}return n}(t,null):function(t,n){var e=arguments.length>2&&void 0!==arguments[2]?arguments[2]:b;switch(t){case"linear":return b;case"steps":return _(n.steps||1,n.jump||0)||e;case"bezier":case"cubic-bezier":return x(n.x1||0,n.y1||0,n.x2||0,n.y2||0)||e}return e}(t.type,t.value,null):null}function Z(t,n,e){var r=arguments.length>3&&void 0!==arguments[3]&&arguments[3],i=n.length-1;if(t<=n[0].t)return r?[0,0,n[0].v]:n[0].v;if(t>=n[i].t)return r?[i,1,n[i].v]:n[i].v;var u,o=n[0],a=null;for(u=1;u<=i;u++){if(!(t>n[u].t)){a=n[u];break}o=n[u]}return null==a?r?[i,1,n[i].v]:n[i].v:o.t===a.t?r?[u,1,a.v]:a.v:(t=(t-o.t)/(a.t-o.t),o.e&&(t=o.e(t)),r?[u,t,e(t,o.v,a.v)]:e(t,o.v,a.v))}function K(t,n){var e=arguments.length>2&&void 0!==arguments[2]?arguments[2]:null;return t&&t.length?"function"!=typeof n?null:("function"!=typeof e&&(e=null),function(r){var i=Z(r,t,n);return null!=i&&e&&(i=e(i)),i}):null}function W(t,n){return t.t-n.t}function X(t,n,r,i,u){var o,a="@"===r[0],l="#"===r[0],s=Y[r],f=T;switch(a?(o=r.substr(1),r=o.replace(U,Q)):l&&(r=r.substr(1)),e(s)){case"function":if(f=s(i,u,Z,J,r,a,n,t),l)return f;break;case"string":f=K(i,H(s));break;case"object":if((f=K(i,H(s.i),s.f))&&"function"==typeof s.u)return s.u(n,f,r,a,t)}return f?function(t,n,e){if(arguments.length>3&&void 0!==arguments[3]&&arguments[3])return t instanceof $?function(r){return t.style(n,e(r))}:function(r){return t.style[n]=e(r)};if(Array.isArray(n)){var r=n.length;return function(i){var u=e(i);if(null==u)for(var o=0;o<r;o++)t[o].removeAttribute(n);else for(var a=0;a<r;a++)t[a].setAttribute(n,u)}}return function(r){var i=e(r);null==i?t.removeAttribute(n):t.setAttribute(n,i)}}(n,r,f,a):null}function tt(t,n,r,i){if(!i||"object"!==e(i))return null;var u=null,o=null;return Array.isArray(i)?o=function(t){if(!t||!t.length)return null;for(var n=0;n<t.length;n++)t[n].e&&(t[n].e=J(t[n].e));return t.sort(W)}(i):(o=i.keys,u=i.data||null),o?X(t,n,r,o,u):null}function nt(t,n,e){if(!e)return null;var r=[];for(var i in e)if(e.hasOwnProperty(i)){var u=tt(t,n,i,e[i]);u&&r.push(u)}return r.length?r:null}function et(t,n){if(!n.settings.duration||n.settings.duration<0)return null;var e,r,i,u,o,a=function(t,n){if(!n)return null;var e=[];if(Array.isArray(n))for(var r=n.length,i=0;i<r;i++){var u=n[i];if(2===u.length){var o=null;if("string"==typeof u[0])o=t.getElementById(u[0]);else if(Array.isArray(u[0])){o=[];for(var a=0;a<u[0].length;a++)if("string"==typeof u[0][a]){var l=t.getElementById(u[0][a]);l&&o.push(l)}o=o.length?1===o.length?o[0]:new $(o):null}if(o){var s=nt(t,o,u[1]);s&&(e=e.concat(s))}}}else for(var f in n)if(n.hasOwnProperty(f)){var c=t.getElementById(f);if(c){var h=nt(t,c,n[f]);h&&(e=e.concat(h))}}return e.length?e:null}(t,n.elements);return a?(e=a,r=n.settings,i=r.duration,u=e.length,o=null,function(t,n){var a=r.iterations||1/0,l=(r.alternate&&a%2==0)^r.direction>0?i:0,s=t%i,f=1+(t-s)/i;n*=r.direction,r.alternate&&f%2==0&&(n=-n);var c=!1;if(f>a)s=l,c=!0,-1===r.fill&&(s=r.direction>0?0:i);else if(n<0&&(s=i-s),s===o)return!1;o=s;for(var h=0;h<u;h++)e[h](s);return c}):null}function rt(t,n){if(Y=n,!t||!t.root||!Array.isArray(t.animations))return null;var e=function(t){for(var n=document.getElementsByTagName("svg"),e=0;e<n.length;e++)if(n[e].id===t.root&&!n[e].svgatorAnimation)return n[e].svgatorAnimation=!0,n[e];return null}(t);if(!e)return null;var r=t.animations.map((function(t){return et(e,t)})).filter((function(t){return!!t}));return r.length?{svg:e,animations:r,animationSettings:t.animationSettings,options:t.options||void 0}:null}function it(t){return+("0x"+(t.replace(/[^0-9a-fA-F]+/g,"")||27))}function ut(t,n,e){return!t||!e||n>t.length?t:t.substring(0,n)+ut(t.substring(n+1),e,e)}function ot(t){var n=arguments.length>1&&void 0!==arguments[1]?arguments[1]:27;return!t||t%n?t%n:ot(t/n,n)}function at(t,n,e){if(t&&t.length){var r=it(e),i=it(n),u=ot(r)+5,o=ut(t,ot(r,5),u);return o=o.replace(/\x7c$/g,"==").replace(/\x2f$/g,"="),o=function(t,n,e){var r=+("0x"+t.substring(0,4));t=t.substring(4);for(var i=n%r+e%27,u=[],o=0;o<t.length;o+=2)if("|"!==t[o]){var a=+("0x"+t[o]+t[o+1])-i;u.push(a)}else{var l=+("0x"+t.substring(o+1,o+1+4))-i;o+=3,u.push(l)}return String.fromCharCode.apply(String,u)}(o=(o=atob(o)).replace(/[\x41-\x5A]/g,""),i,r),o=JSON.parse(o)}}var lt=[{key:"alternate",def:!1},{key:"fill",def:1},{key:"iterations",def:0},{key:"direction",def:1},{key:"speed",def:1},{key:"fps",def:100}],st=function(){function t(n,e){var i=this,u=arguments.length>2&&void 0!==arguments[2]?arguments[2]:null;r(this,t),this._id=0,this._running=!1,this._rollingBack=!1,this._animations=n,this._settings=e,(!u||u<"2022-05-02")&&delete this._settings.speed,lt.forEach((function(t){i._settings[t.key]=i._settings[t.key]||t.def})),this.duration=e.duration,this.offset=e.offset||0,this.rollbackStartOffset=0}return u(t,[{key:"alternate",get:function(){return this._settings.alternate}},{key:"fill",get:function(){return this._settings.fill}},{key:"iterations",get:function(){return this._settings.iterations}},{key:"direction",get:function(){return this._settings.direction}},{key:"speed",get:function(){return this._settings.speed}},{key:"fps",get:function(){return this._settings.fps}},{key:"maxFiniteDuration",get:function(){return this.iterations>0?this.iterations*this.duration:this.duration}},{key:"_apply",value:function(t){for(var n=arguments.length>1&&void 0!==arguments[1]?arguments[1]:{},e=this._animations,r=e.length,i=0,u=0;u<r;u++)n[u]?i++:(n[u]=e[u](t,1),n[u]&&i++);return i}},{key:"_rollback",value:function(t){var n=this,e=1/0,r=null;this.rollbackStartOffset=t,this._rollingBack=!0,this._running=!0;this._id=window.requestAnimationFrame((function i(u){if(n._rollingBack){null==r&&(r=u);var o=Math.round(t-(u-r)*n.speed);if(o>n.duration&&e!==1/0){var a=!!n.alternate&&o/n.duration%2>1,l=o%n.duration;o=(l+=a?n.duration:0)||n.duration}var s=(n.fps?1e3/n.fps:0)*n.speed,f=Math.max(0,o);f<e-s&&(n.offset=f,e=f,n._apply(f));var c=n.iterations>0&&-1===n.fill&&o>=n.maxFiniteDuration;(o<=0||n.offset<o||c)&&n.stop(),n._id=window.requestAnimationFrame(i)}}))}},{key:"_start",value:function(){var t=this,n=arguments.length>0&&void 0!==arguments[0]?arguments[0]:0,e=-1/0,r=null,i={};this._running=!0;var u=function u(o){null==r&&(r=o);var a=Math.round((o-r)*t.speed+n),l=(t.fps?1e3/t.fps:0)*t.speed;if(a>e+l&&!t._rollingBack&&(t.offset=a,e=a,t._apply(a,i)===t._animations.length))return void t.pause(!0);t._id=window.requestAnimationFrame(u)};this._id=window.requestAnimationFrame(u)}},{key:"_pause",value:function(){this._id&&window.cancelAnimationFrame(this._id),this._running=!1}},{key:"play",value:function(){if(!this._running)return this._rollingBack?this._rollback(this.offset):this._start(this.offset)}},{key:"stop",value:function(){this._pause(),this.offset=0,this.rollbackStartOffset=0,this._rollingBack=!1,this._apply(0)}},{key:"reachedToEnd",value:function(){return this.iterations>0&&this.offset>=this.iterations*this.duration}},{key:"restart",value:function(){var t=arguments.length>0&&void 0!==arguments[0]&&arguments[0];this.stop(t),this.play(t)}},{key:"pause",value:function(){this._pause()}},{key:"reverse",value:function(){this.direction=-this.direction}}],[{key:"build",value:function(t,n){delete t.animationSettings,t.options=at(t.options,t.root,"5c7f360c"),t.animations.map((function(n){n.settings=at(n.s,t.root,"5c7f360c"),delete n.s,t.animationSettings||(t.animationSettings=n.settings)}));var e=t.version;if(!(t=rt(t,n)))return null;var r=t.options||{},i=new this(t.animations,t.animationSettings,e);return{el:t.svg,options:r,player:i}}},{key:"push",value:function(t){return this.build(t)}},{key:"init",value:function(){var t=this,n=window.__SVGATOR_PLAYER__&&window.__SVGATOR_PLAYER__["5c7f360c"];Array.isArray(n)&&n.splice(0).forEach((function(n){return t.build(n)}))}}]),t}();function ft(t){return d(t)+""}function ct(t){var n=arguments.length>1&&void 0!==arguments[1]?arguments[1]:" ";return t&&t.length?t.map(ft).join(n):""}function ht(t){if(!t)return"transparent";if(null==t.a||t.a>=1){var n=function(t){return 1===(t=parseInt(t).toString(16)).length?"0"+t:t},e=function(t){return t.charAt(0)===t.charAt(1)},r=n(t.r),i=n(t.g),u=n(t.b);return e(r)&&e(i)&&e(u)&&(r=r.charAt(0),i=i.charAt(0),u=u.charAt(0)),"#"+r+i+u}return"rgba("+t.r+","+t.g+","+t.b+","+t.a+")"}function vt(t){return t?"url(#"+t+")":"none"}!function(){for(var t=0,n=["ms","moz","webkit","o"],e=0;e<n.length&&!window.requestAnimationFrame;++e)window.requestAnimationFrame=window[n[e]+"RequestAnimationFrame"],window.cancelAnimationFrame=window[n[e]+"CancelAnimationFrame"]||window[n[e]+"CancelRequestAnimationFrame"];window.requestAnimationFrame||(window.requestAnimationFrame=function(n){var e=Date.now(),r=Math.max(0,16-(e-t)),i=window.setTimeout((function(){n(e+r)}),r);return t=e+r,i},window.cancelAnimationFrame=window.clearTimeout)}();var yt={f:null,i:function(t,n,e){return 0===t?n:1===t?e:{x:B(t,n.x,e.x),y:B(t,n.y,e.y)}},u:function(t,n){return function(e){var r=n(e);t.setAttribute("rx",ft(r.x)),t.setAttribute("ry",ft(r.y))}}},gt={f:null,i:function(t,n,e){return 0===t?n:1===t?e:{width:B(t,n.width,e.width),height:B(t,n.height,e.height)}},u:function(t,n){return function(e){var r=n(e);t.setAttribute("width",ft(r.width)),t.setAttribute("height",ft(r.height))}}};Object.freeze({M:2,L:2,Z:0,H:1,V:1,C:6,Q:4,T:2,S:4,A:7});var dt={},pt=null;function mt(t){var n=function(){if(pt)return pt;if("object"!==("undefined"==typeof document?"undefined":e(document))||!document.createElementNS)return{};var t=document.createElementNS("http://www.w3.org/2000/svg","svg");return t&&t.style?(t.style.position="absolute",t.style.opacity="0.01",t.style.zIndex="-9999",t.style.left="-9999px",t.style.width="1px",t.style.height="1px",pt={svg:t}):{}}().svg;if(!n)return function(t){return null};var r=document.createElementNS(n.namespaceURI,"path");r.setAttributeNS(null,"d",t),r.setAttributeNS(null,"fill","none"),r.setAttributeNS(null,"stroke","none"),n.appendChild(r);var i=r.getTotalLength();return function(t){var n=r.getPointAtLength(i*t);return{x:n.x,y:n.y}}}function bt(t){return dt[t]?dt[t]:dt[t]=mt(t)}function wt(t,n,e,r){if(!t||!r)return!1;var i=["M",t.x,t.y];if(n&&e&&(i.push("C"),i.push(n.x),i.push(n.y),i.push(e.x),i.push(e.y)),n?!e:e){var u=n||e;i.push("Q"),i.push(u.x),i.push(u.y)}return n||e||i.push("L"),i.push(r.x),i.push(r.y),i.join(" ")}function xt(t,n,e,r){var i=arguments.length>4&&void 0!==arguments[4]?arguments[4]:1,u=wt(t,n,e,r),o=bt(u);try{return o(i)}catch(t){return null}}function At(t,n,e){return t+(n-t)*e}function kt(t,n,e){var r=arguments.length>3&&void 0!==arguments[3]&&arguments[3],i={x:At(t.x,n.x,e),y:At(t.y,n.y,e)};return r&&(i.a=_t(t,n)),i}function _t(t,n){return Math.atan2(n.y-t.y,n.x-t.x)}function St(t,n,e,r){var i=1-r;return i*i*t+2*i*r*n+r*r*e}function Ot(t,n,e,r){return 2*(1-r)*(n-t)+2*r*(e-n)}function jt(t,n,e,r){var i=arguments.length>4&&void 0!==arguments[4]&&arguments[4],u=xt(t,n,null,e,r);return u||(u={x:St(t.x,n.x,e.x,r),y:St(t.y,n.y,e.y,r)}),i&&(u.a=Mt(t,n,e,r)),u}function Mt(t,n,e,r){return Math.atan2(Ot(t.y,n.y,e.y,r),Ot(t.x,n.x,e.x,r))}function Pt(t,n,e,r,i){var u=i*i;return i*u*(r-t+3*(n-e))+3*u*(t+e-2*n)+3*i*(n-t)+t}function Et(t,n,e,r,i){var u=1-i;return 3*(u*u*(n-t)+2*u*i*(e-n)+i*i*(r-e))}function It(t,n,e,r,i){var u=arguments.length>5&&void 0!==arguments[5]&&arguments[5],o=xt(t,n,e,r,i);return o||(o={x:Pt(t.x,n.x,e.x,r.x,i),y:Pt(t.y,n.y,e.y,r.y,i)}),u&&(o.a=Rt(t,n,e,r,i)),o}function Rt(t,n,e,r,i){return Math.atan2(Et(t.y,n.y,e.y,r.y,i),Et(t.x,n.x,e.x,r.x,i))}function Ft(t,n,e){var r=arguments.length>3&&void 0!==arguments[3]&&arguments[3];if(Tt(n)){if(qt(e))return jt(n,e.start,e,t,r)}else if(Tt(e)){if(Bt(n))return jt(n,n.end,e,t,r)}else{if(Bt(n))return qt(e)?It(n,n.end,e.start,e,t,r):jt(n,n.end,e,t,r);if(qt(e))return jt(n,e.start,e,t,r)}return kt(n,e,t,r)}function Nt(t,n,e){var r=Ft(t,n,e,!0);return r.a=function(t){return arguments.length>1&&void 0!==arguments[1]&&arguments[1]?t+Math.PI:t}(r.a)/m,r}function Tt(t){return!t.type||"corner"===t.type}function qt(t){return null!=t.start&&!Tt(t)}function Bt(t){return null!=t.end&&!Tt(t)}var Lt=new N;var Ct={f:ft,i:q},Dt={f:ft,i:L};function zt(t,n,e){return t.map((function(t){return function(t,n,e){var r=t.v;if(!r||"g"!==r.t||r.s||!r.v||!r.r)return t;var i=e.getElementById(r.r),u=i&&i.querySelectorAll("stop")||[];return r.s=r.v.map((function(t,n){var e=u[n]&&u[n].getAttribute("offset");return{c:t,o:e=d(parseInt(e)/100)}})),delete r.v,t}(t,0,e)}))}var Vt={gt:"gradientTransform",c:{x:"cx",y:"cy"},rd:"r",f:{x:"x1",y:"y1"},to:{x:"x2",y:"y2"}};function Gt(t,n,r,i,u,o,a,l){return zt(t,0,l),n=function(t,n,e){for(var r,i,u,o=t.length-1,a={},l=0;l<=o;l++)(r=t[l]).e&&(r.e=n(r.e)),r.v&&"g"===(i=r.v).t&&i.r&&(u=e.getElementById(i.r))&&(a[i.r]={e:u,s:u.querySelectorAll("stop")});return a}(t,i,l),function(i){var u=r(i,t,Yt);if(!u)return"none";if("c"===u.t)return ht(u.v);if("g"===u.t){if(!n[u.r])return vt(u.r);var o=n[u.r];return function(t,n){for(var e=t.s,r=e.length;r<n.length;r++){var i=e[e.length-1].cloneNode();i.id=Qt(i.id),t.e.appendChild(i),e=t.s=t.e.querySelectorAll("stop")}for(var u=0,o=e.length,a=n.length-1;u<o;u++)e[u].setAttribute("stop-color",ht(n[Math.min(u,a)].c)),e[u].setAttribute("offset",n[Math.min(u,a)].o)}(o,u.s),Object.keys(Vt).forEach((function(t){if(void 0!==u[t])if("object"!==e(Vt[t])){var n,r="gt"===t?(n=u[t],Array.isArray(n)?"matrix("+n.join(" ")+")":""):u[t],i=Vt[t];o.e.setAttribute(i,r)}else Object.keys(Vt[t]).forEach((function(n){if(void 0!==u[t][n]){var e=u[t][n],r=Vt[t][n];o.e.setAttribute(r,e)}}))})),vt(u.r)}return"none"}}function Yt(t,e,r){if(0===t)return e;if(1===t)return r;if(e&&r){var i=e.t;if(i===r.t)switch(e.t){case"c":return{t:i,v:z(t,e.v,r.v)};case"g":if(e.r===r.r){var u={t:i,s:$t(t,e.s,r.s),r:e.r};return e.gt&&r.gt&&(u.gt=function(t,n,e){var r=n.length;if(r!==e.length)return T(t,n,e);for(var i=new Array(r),u=0;u<r;u++)i[u]=q(t,n[u],e[u]);return i}(t,e.gt,r.gt)),e.c?(u.c=C(t,e.c,r.c),u.rd=B(t,e.rd,r.rd)):e.f&&(u.f=C(t,e.f,r.f),u.to=C(t,e.to,r.to)),u}}if("c"===e.t&&"g"===r.t||"c"===r.t&&"g"===e.t){var o="c"===e.t?e:r,a="g"===e.t?n({},e):n({},r),l=a.s.map((function(t){return{c:o.v,o:t.o}}));return a.s="c"===e.t?$t(t,l,a.s):$t(t,a.s,l),a}}return T(t,e,r)}function $t(t,n,e){if(n.length===e.length)return n.map((function(n,r){return Ut(t,n,e[r])}));for(var r=Math.max(n.length,e.length),i=[],u=0;u<r;u++){var o=Ut(t,n[Math.min(u,n.length-1)],e[Math.min(u,e.length-1)]);i.push(o)}return i}function Ut(t,n,e){return{o:L(t,n.o,e.o||0),c:z(t,n.c,e.c||{})}}function Qt(t){return t.replace(/-fill-([0-9]+)$/,(function(t,n){return"-fill-"+(+n+1)}))}var Ht={fill:Gt,"fill-opacity":Dt,stroke:Gt,"stroke-opacity":Dt,"stroke-width":Ct,"stroke-dashoffset":{f:ft,i:q},"stroke-dasharray":{f:function(t){var n=arguments.length>1&&void 0!==arguments[1]?arguments[1]:" ";return t&&t.length>0&&(t=t.map((function(t){return d(t,4)}))),ct(t,n)},i:function(t,n,e){var r,i,u,o=n.length,a=e.length;if(o!==a)if(0===o)n=V(o=a,0);else if(0===a)a=o,e=V(o,0);else{var l=(u=(r=o)*(i=a)/function(t,n){for(var e;n;)e=n,n=t%n,t=e;return t||1}(r,i))<0?-u:u;n=G(n,Math.floor(l/o)),e=G(e,Math.floor(l/a)),o=a=l}for(var s=[],f=0;f<o;f++)s.push(d(B(t,n[f],e[f])));return s}},opacity:Dt,transform:function(t,n,r,i){if(!(t=function(t,n){if(!t||"object"!==e(t))return null;var r=!1;for(var i in t)t.hasOwnProperty(i)&&(t[i]&&t[i].length?(t[i].forEach((function(t){t.e&&(t.e=n(t.e))})),r=!0):delete t[i]);return r?t:null}(t,i)))return null;var u=function(e,i,u){var o=arguments.length>3&&void 0!==arguments[3]?arguments[3]:null;return t[e]?r(i,t[e],u):n&&n[e]?n[e]:o};return n&&n.a&&t.o?function(n){var e=r(n,t.o,Nt);return Lt.recomposeSelf(e,u("r",n,q,0)+e.a,u("k",n,C),u("s",n,C),u("t",n,C)).toString()}:function(t){return Lt.recomposeSelf(u("o",t,Ft,null),u("r",t,q,0),u("k",t,C),u("s",t,C),u("t",t,C)).toString()}},r:Ct,"#size":gt,"#radius":yt,_:function(t,n){if(Array.isArray(t))for(var e=0;e<t.length;e++)this[t[e]]=n;else this[t]=n}},Jt=function(t){!function(t,n){if("function"!=typeof n&&null!==n)throw new TypeError("Super expression must either be null or a function");t.prototype=Object.create(n&&n.prototype,{constructor:{value:t,writable:!0,configurable:!0}}),n&&l(t,n)}(o,t);var n,e,i=(n=o,e=s(),function(){var t,r=a(n);if(e){var i=a(this).constructor;t=Reflect.construct(r,arguments,i)}else t=r.apply(this,arguments);return c(this,t)});function o(){return r(this,o),i.apply(this,arguments)}return u(o,null,[{key:"build",value:function(t){var n=h(a(o),"build",this).call(this,t,Ht);if(!n)return null;n.el,n.options,function(t,n,e){t.play()}(n.player)}}]),o}(st);return Jt.init(),Jt}));
(function(s,i,o,w,a,b){w[o]=w[o]||{};w[o][s]=w[o][s]||[];w[o][s].push(i);})('5c7f360c',{"root":"eZ1dLaTGr4f1","version":"2022-05-04","animations":[{"elements":{"eZ1dLaTGr4f2":{"transform":{"data":{"o":{"x":25.695681,"y":35.46751,"type":"corner"},"t":{"x":-25.695681,"y":-35.46751}},"keys":{"r":[{"t":0,"v":5},{"t":300,"v":0},{"t":600,"v":5},{"t":900,"v":0},{"t":1100,"v":-5},{"t":1300,"v":5},{"t":1500,"v":-5},{"t":1700,"v":5}],"s":[{"t":0,"v":{"x":0.8,"y":0.8}},{"t":300,"v":{"x":0.9,"y":0.9}},{"t":600,"v":{"x":0.8,"y":0.8}},{"t":900,"v":{"x":1,"y":1}},{"t":1700,"v":{"x":1,"y":1}},{"t":2000,"v":{"x":0.8,"y":0.8}}]}}}},"s":"MYDA1M2MyNjlhYmJjYjAlhOEhiYmIwWGI2YjUH2OVE4MTc5Nzc3Nzc3DNzNDNjlHYWJiMGI5YAWNhYWJiYjBiNmI1NjMk4MTc4NzM2OWIwYmJBhY1hiOWE4YmJiMGI2VYjViYTY5ODE3NzczRPDY5YWRiMGIzYjM2OTEgxNzg3MzY5YThiM2JCiYWNUYjliNWE4YmJhKYzY5ODFhZGE4YjNiYRWFjNzM2OWJhU2I3UGHFjYWNhYjY5WTgxNzhDjNA|"}],"options":"MRDAxMDg4MmY4MDgxNmEU3ZjgxMmY0NzJmNzkR3YzZlWDcxMmY4YQ|"},'__SVGATOR_PLAYER__',window)]]></script></svg>