<svg width="24" height="24" viewBox="0 0 24 24" fill="none" xmlns="http://www.w3.org/2000/svg">
<path fill-rule="evenodd" clip-rule="evenodd" d="M15.3512 5.11231C15.1218 4.43702 14.5259 4 13.8511 4H10.5487L10.4232 4.00507C9.75932 4.05879 9.19285 4.53517 9.0184 5.20426L8.82031 6.2145L8.7971 6.30343C8.70224 6.59142 8.43705 6.7913 8.13414 6.7913L8.13263 6.79141H5.58511L5.50572 6.79688C5.22012 6.83662 5 7.08766 5 7.39143C5 7.72281 5.26196 7.99145 5.58511 7.99145H18.8149L18.8943 7.98597C19.1799 7.94624 19.4 7.6952 19.4 7.39143C19.4 7.06005 19.138 6.79141 18.8149 6.79141H16.2766C16.273 6.79134 16.2693 6.7913 16.2656 6.7913L16.176 6.78542C15.882 6.74656 15.6389 6.51898 15.5794 6.21426L15.3899 5.24167L15.3512 5.11231ZM14.5315 6.79141C14.5048 6.72363 14.4818 6.65381 14.4626 6.58215L14.4319 6.44967L14.2509 5.51424C14.2085 5.35193 14.0778 5.23311 13.9201 5.20594L13.8511 5.20004H10.5487C10.3845 5.20004 10.2386 5.29858 10.178 5.42242L10.1574 5.47683L9.9678 6.44991C9.94465 6.56842 9.91113 6.68256 9.86833 6.79141H14.5315ZM17.7828 9.37619C18.078 9.4006 18.3043 9.64578 18.32 9.9409L18.3124 10.1054L18.0608 13.1864L17.7969 16.1931C17.7411 16.7934 17.6911 17.2996 17.6479 17.6982C17.498 19.0871 16.5964 19.9459 15.2373 19.9713C13.1195 20.0105 11.0838 20.0101 9.10701 19.9673C7.78721 19.9396 6.89896 19.0715 6.75167 17.7038L6.64987 16.6962L6.47198 14.7417L6.28976 12.5969L6.0814 10.0224C6.05551 9.69204 6.29564 9.40274 6.61775 9.37618C6.91301 9.35184 7.17467 9.55673 7.23618 9.84547L7.26012 10.0814L7.45576 12.495L7.66938 14.9968C7.7652 16.0797 7.8483 16.9562 7.9148 17.5719C7.99874 18.3513 8.40913 18.7524 9.13132 18.7675C11.0927 18.8099 13.1132 18.8103 15.2161 18.7715C15.9822 18.7572 16.3991 18.36 16.4848 17.5659L16.5862 16.5637C16.6159 16.2549 16.6476 15.9139 16.6811 15.5435L16.8949 13.0831L17.1525 9.92605C17.1763 9.62327 17.4154 9.39117 17.7032 9.37511L17.7828 9.37619Z" fill="#142F43"/>
</svg>
