<svg width="24" height="24" viewBox="0 0 24 24" fill="none" xmlns="http://www.w3.org/2000/svg">
<path fill-rule="evenodd" clip-rule="evenodd" d="M12.1473 2C16.0947 2 19.2946 5.19996 19.2946 9.14732V9.57782C19.2946 11.1572 18.8012 12.6971 17.8831 13.9823L12.1614 21.9927C12.1545 22.0024 12.1401 22.0024 12.1332 21.9927L6.4115 13.9823C5.49349 12.6971 5 11.1572 5 9.57782V9.14732C5 5.19996 8.19997 2 12.1473 2ZM13.5443 6.28909C12.6615 5.86395 11.6331 5.86395 10.7503 6.28909C9.86751 6.71423 9.22633 7.51825 9.0083 8.47353C8.79026 9.42882 9.01909 10.4314 9.63002 11.1975C10.2409 11.9636 11.1675 12.4098 12.1473 12.4098C13.1272 12.4098 14.0537 11.9636 14.6646 11.1975C15.2756 10.4314 15.5044 9.42882 15.2864 8.47353C15.0683 7.51825 14.4271 6.71423 13.5443 6.28909Z" fill="#142F43"/>
</svg>
