<svg width="24" height="24" viewBox="0 0 24 24" fill="none" xmlns="http://www.w3.org/2000/svg">
<circle cx="11.5" cy="6.5" r="4.5" fill="#142F43"/>
<path fill-rule="evenodd" clip-rule="evenodd" d="M3.00002 17.996C2.99849 17.5509 3.08775 17.1113 3.26104 16.7103C3.80484 15.4974 5.33834 14.8546 6.61082 14.5635C7.52853 14.3451 8.45892 14.1992 9.39506 14.1269C11.1282 13.9571 12.8714 13.9571 14.6046 14.1269C15.5407 14.2 16.471 14.3459 17.3889 14.5635C18.6613 14.8546 20.1948 15.4368 20.7386 16.7103C21.0871 17.5276 21.0871 18.4765 20.7386 19.2938C20.1948 20.5673 18.6613 21.1495 17.3889 21.4285C16.4722 21.6559 15.5415 21.8059 14.6046 21.8772C13.1939 22.0106 11.7767 22.0349 10.363 21.95C10.0367 21.95 9.72133 21.95 9.39506 21.8772C8.46169 21.8068 7.53452 21.6568 6.6217 21.4285C5.33834 21.1495 3.81571 20.5673 3.26104 19.2938C3.08864 18.8882 2.99947 18.4448 3.00002 17.996Z" fill="#142F43"/>
</svg>
