<svg width="24" height="24" viewBox="0 0 24 24" fill="none" xmlns="http://www.w3.org/2000/svg">
<path d="M12.75 7.8125V2.5H4.9375C4.39062 2.5 4 2.92969 4 3.4375V21.5625C4 22.1094 4.39062 22.5 4.9375 22.5H18.0625C18.5703 22.5 19 22.1094 19 21.5625V8.75H13.6875C13.1406 8.75 12.75 8.35938 12.75 7.8125ZM15.25 17.0312C15.25 17.3047 15.0156 17.5 14.7812 17.5H8.21875C7.94531 17.5 7.75 17.3047 7.75 17.0312V16.7188C7.75 16.4844 7.94531 16.25 8.21875 16.25H14.7812C15.0156 16.25 15.25 16.4844 15.25 16.7188V17.0312ZM15.25 14.5312C15.25 14.8047 15.0156 15 14.7812 15H8.21875C7.94531 15 7.75 14.8047 7.75 14.5312V14.2188C7.75 13.9844 7.94531 13.75 8.21875 13.75H14.7812C15.0156 13.75 15.25 13.9844 15.25 14.2188V14.5312ZM15.25 11.7188V12.0312C15.25 12.3047 15.0156 12.5 14.7812 12.5H8.21875C7.94531 12.5 7.75 12.3047 7.75 12.0312V11.7188C7.75 11.4844 7.94531 11.25 8.21875 11.25H14.7812C15.0156 11.25 15.25 11.4844 15.25 11.7188ZM19 7.26562C19 7.03125 18.8828 6.79688 18.7266 6.60156L14.8984 2.77344C14.7031 2.61719 14.4688 2.5 14.2344 2.5H14V7.5H19V7.26562Z" fill="#142F43"/>
</svg>
